<?xml version="1.0" encoding="UTF-8"?>
<svg xmlns="http://www.w3.org/2000/svg" width="1852" height="1024" viewBox="0 0 1852 1024">
<defs>
    <filter id="softShadow" x="-25%" y="-25%" width="150%" height="160%">
      <feDropShadow dx="0" dy="12" stdDeviation="12" flood-color="#16325C" flood-opacity="0.16"/>
    </filter>
    <filter id="buttonShadow" x="-20%" y="-20%" width="140%" height="150%">
      <feDropShadow dx="0" dy="8" stdDeviation="8" flood-color="#16325C" flood-opacity="0.20"/>
    </filter>
    <linearGradient id="blueBtn" x1="0" y1="0" x2="0" y2="1">
      <stop offset="0" stop-color="#5D8CFF"/><stop offset="0.62" stop-color="#2F6FEA"/><stop offset="1" stop-color="#1F55C7"/>
    </linearGradient>
    <linearGradient id="redBtn" x1="0" y1="0" x2="0" y2="1">
      <stop offset="0" stop-color="#FF7469"/><stop offset="0.62" stop-color="#F24A3D"/><stop offset="1" stop-color="#C93228"/>
    </linearGradient>
    <linearGradient id="orangeBtn" x1="0" y1="0" x2="0" y2="1">
      <stop offset="0" stop-color="#FFB743"/><stop offset="1" stop-color="#FF8C13"/>
    </linearGradient>
    <linearGradient id="nightBg" x1="0" y1="0" x2="0" y2="1">
      <stop offset="0" stop-color="#071A2F"/><stop offset="0.55" stop-color="#123866"/><stop offset="1" stop-color="#1B4A80"/>
    </linearGradient>
    <linearGradient id="morningBg" x1="0" y1="0" x2="1" y2="1">
      <stop offset="0" stop-color="#FFF9E8"/><stop offset="1" stop-color="#FFE4B6"/>
    </linearGradient>
    <linearGradient id="alarmBg" x1="0" y1="0" x2="0" y2="1">
      <stop offset="0" stop-color="#FFF7E8"/><stop offset="1" stop-color="#FFD78F"/>
    </linearGradient>
  </defs>
<rect x="0" y="0" width="1852" height="1024" rx="0" fill="#FFF8EA" stroke="none" stroke-width="1" />
<circle cx="178" cy="130" r="106" fill="#FFF1D8" stroke="#F3DDB6" stroke-width="3"/>
<circle cx="178" cy="130" r="86" fill="#16325C" stroke="none" stroke-width="1"/>
<circle cx="210" cy="130" r="54" fill="#FFE08A" stroke="none" stroke-width="1"/>
<circle cx="228.36" cy="121.9" r="51.3" fill="#16325C" stroke="none" stroke-width="1"/>
<circle cx="124.28" cy="97.35" r="17.64" fill="#C98B4E" stroke="none" stroke-width="1"/>
<circle cx="179.72" cy="97.35" r="17.64" fill="#C98B4E" stroke="none" stroke-width="1"/>
<circle cx="124.28" cy="97.35" r="9.45" fill="#F1C485" stroke="none" stroke-width="1"/>
<circle cx="179.72" cy="97.35" r="9.45" fill="#F1C485" stroke="none" stroke-width="1"/>
<ellipse cx="152" cy="132" rx="47.25" ry="44.1" fill="#C98B4E" stroke="none" stroke-width="1"/>
<ellipse cx="152" cy="144.6" rx="23.94" ry="17.64" fill="#F1C485" stroke="none" stroke-width="1"/>
<circle cx="134.36" cy="124.44" r="0.1" fill="#1C2D49" stroke="none" stroke-width="1"/>
<circle cx="169.64" cy="124.44" r="0.1" fill="#1C2D49" stroke="none" stroke-width="1"/>
<rect x="128.06" y="122.55" width="13.86" height="3.15" rx="5" fill="#664125" stroke="none" stroke-width="1" />
<rect x="162.08" y="122.55" width="13.86" height="3.15" rx="5" fill="#664125" stroke="none" stroke-width="1" />
<ellipse cx="152" cy="137.04" rx="8.82" ry="6.3" fill="#664125" stroke="none" stroke-width="1"/>
<path d="M 141.92 149.64 Q 152 158.46 162.08 149.64" fill="none" stroke="#664125" stroke-width="2.52" stroke-linecap="round"/>
<text x="178" y="306" fill="#16325C" font-size="52" font-family='"Noto Sans SC","Microsoft YaHei",Arial,sans-serif' font-weight="900" text-anchor="middle" letter-spacing="0">睡了么</text>
<text x="178" y="355" fill="#4F4A45" font-size="28" font-family='"Noto Sans SC","Microsoft YaHei",Arial,sans-serif' font-weight="500" text-anchor="middle" letter-spacing="0">离线守护 · 晨间关怀</text>
<rect x="48" y="420" width="156" height="126" rx="18" fill="#FFFFFF" stroke="#EFE3D1" stroke-width="1" filter="url(#softShadow)"/>
<path d="M 126 446 L 146.9 453.7 L 144.15 477.9 Q 136.45 487.8 126 492.2 Q 115.55 487.8 107.85 477.9 L 105.1 453.7 Z" fill="#4CAF67" stroke="#2D8D45" stroke-width="1.1"/>
<path d="M 117.2 466.9 L 124.35 474.6 L 138.1 459.2" fill="none" stroke="#FFFFFF" stroke-width="4.4" stroke-linecap="round" stroke-linejoin="round"/>
<text x="126" y="522" fill="#224D8E" font-size="21" font-family='"Noto Sans SC","Microsoft YaHei",Arial,sans-serif' font-weight="700" text-anchor="middle" letter-spacing="0">安心守护</text>
<rect x="224" y="420" width="156" height="126" rx="18" fill="#FFFFFF" stroke="#EFE3D1" stroke-width="1" filter="url(#softShadow)"/>
<circle cx="302" cy="468" r="25" fill="#FF9D22" stroke="none" stroke-width="1"/>
<rect x="337" y="465" width="6" height="18" rx="3" fill="#FF9D22" stroke="none" stroke-width="1" transform="rotate(0 302 468)"/>
<rect x="325.8700576850888" y="491.8700576850888" width="6" height="18" rx="3" fill="#FF9D22" stroke="none" stroke-width="1" transform="rotate(45 302 468)"/>
<rect x="299" y="503" width="6" height="18" rx="3" fill="#FF9D22" stroke="none" stroke-width="1" transform="rotate(90 302 468)"/>
<rect x="272.1299423149112" y="491.8700576850888" width="6" height="18" rx="3" fill="#FF9D22" stroke="none" stroke-width="1" transform="rotate(135 302 468)"/>
<rect x="261" y="465" width="6" height="18" rx="3" fill="#FF9D22" stroke="none" stroke-width="1" transform="rotate(180 302 468)"/>
<rect x="272.1299423149112" y="438.1299423149112" width="6" height="18" rx="3" fill="#FF9D22" stroke="none" stroke-width="1" transform="rotate(225 302 468)"/>
<rect x="299" y="427" width="6" height="18" rx="3" fill="#FF9D22" stroke="none" stroke-width="1" transform="rotate(270 302 468)"/>
<rect x="325.8700576850888" y="438.1299423149112" width="6" height="18" rx="3" fill="#FF9D22" stroke="none" stroke-width="1" transform="rotate(315 302 468)"/>
<text x="302" y="522" fill="#9F5F08" font-size="21" font-family='"Noto Sans SC","Microsoft YaHei",Arial,sans-serif' font-weight="700" text-anchor="middle" letter-spacing="0">晨间关怀</text>
<rect x="48" y="565" width="156" height="126" rx="18" fill="#FFFFFF" stroke="#EFE3D1" stroke-width="1" filter="url(#softShadow)"/>
<text x="126" y="629" fill="#9F2E27" font-size="44" font-family='"Noto Sans SC","Microsoft YaHei",Arial,sans-serif' font-weight="700" text-anchor="middle" letter-spacing="0">❤</text>
<text x="126" y="667" fill="#9F2E27" font-size="21" font-family='"Noto Sans SC","Microsoft YaHei",Arial,sans-serif' font-weight="700" text-anchor="middle" letter-spacing="0">家人陪伴</text>
<rect x="224" y="565" width="156" height="126" rx="18" fill="#FFFFFF" stroke="#EFE3D1" stroke-width="1" filter="url(#softShadow)"/>
<rect x="272" y="599" width="55" height="28" rx="6" fill="#90D89B" stroke="#4B9C5C" stroke-width="3" />
<rect x="328" y="607" width="8" height="12" rx="3" fill="#4B9C5C" stroke="none" stroke-width="1" />
<rect x="277" y="604" width="38" height="18" rx="4" fill="#4CAF67" stroke="none" stroke-width="1" />
<text x="302" y="667" fill="#286B36" font-size="21" font-family='"Noto Sans SC","Microsoft YaHei",Arial,sans-serif' font-weight="700" text-anchor="middle" letter-spacing="0">离线可用</text>
<rect x="48" y="726" width="332" height="86" rx="24" fill="#FFF0DA" stroke="none" stroke-width="1" />
<text x="116" y="772" fill="#F24A3D" font-size="34" font-family='"Noto Sans SC","Microsoft YaHei",Arial,sans-serif' font-weight="700" text-anchor="middle" letter-spacing="0">👐❤</text>
<text x="178" y="760" fill="#9B6530" font-size="27" font-family='"Noto Sans SC","Microsoft YaHei",Arial,sans-serif' font-weight="800" text-anchor="start" letter-spacing="0">
<tspan x="178" dy="0">我在，</tspan>
<tspan x="178" dy="27">你安心入睡</tspan>
</text>
<rect x="425" y="77" width="360" height="790" rx="48" fill="#111111" stroke="#111111" stroke-width="1" />
<rect x="430" y="82" width="350" height="780" rx="42" fill="#FFFFFF" stroke="#202020" stroke-width="5" />
<defs><clipPath id="clip-0"><rect x="437" y="89" width="336" height="766" rx="34"/></clipPath></defs>
<g clip-path="url(#clip-0)">
<rect x="437" y="89" width="336" height="766" rx="0" fill="url(#nightBg)" stroke="none" stroke-width="1" />
<text x="453" y="117" fill="#FFFFFF" font-size="13" font-family='"Noto Sans SC","Microsoft YaHei",Arial,sans-serif' font-weight="600" text-anchor="start" letter-spacing="0">12:30</text>
<path d="M 713 107 l 16 0 l -8 12 z" fill="#FFFFFF"/>
<path d="M 742 106 l 16 21 l -25 0 z" fill="#FFFFFF"/>
<rect x="763" y="107" width="10" height="20" rx="3" fill="#FFFFFF" stroke="none" stroke-width="1" />
<text x="605" y="183" fill="#FFFFFF" font-size="32" font-family='"Noto Sans SC","Microsoft YaHei",Arial,sans-serif' font-weight="800" text-anchor="middle" letter-spacing="0">睡了么</text>
<circle cx="713" cy="231" r="28" fill="#FFE08A" stroke="none" stroke-width="1"/>
<circle cx="722.52" cy="226.8" r="26.599999999999998" fill="#16325C" stroke="none" stroke-width="1"/>
<text x="537" y="221" fill="#FFE08A" font-size="20" font-family='"Noto Sans SC","Microsoft YaHei",Arial,sans-serif' font-weight="700" text-anchor="middle" letter-spacing="0">✦</text>
<text x="592" y="269" fill="#FFE08A" font-size="20" font-family='"Noto Sans SC","Microsoft YaHei",Arial,sans-serif' font-weight="700" text-anchor="middle" letter-spacing="0">✦</text>
<text x="657" y="259" fill="#FFE08A" font-size="20" font-family='"Noto Sans SC","Microsoft YaHei",Arial,sans-serif' font-weight="700" text-anchor="middle" letter-spacing="0">✦</text>
<text x="683" y="319" fill="#FFE08A" font-size="20" font-family='"Noto Sans SC","Microsoft YaHei",Arial,sans-serif' font-weight="700" text-anchor="middle" letter-spacing="0">✦</text>
<text x="565" y="349" fill="#FFE08A" font-size="20" font-family='"Noto Sans SC","Microsoft YaHei",Arial,sans-serif' font-weight="700" text-anchor="middle" letter-spacing="0">✦</text>
<rect x="459" y="224" width="70" height="220" rx="20" fill="#1A4380" stroke="none" stroke-width="1" />
<rect x="687" y="214" width="72" height="232" rx="20" fill="#1A4380" stroke="none" stroke-width="1" />
<rect x="481" y="433" width="250" height="70" rx="32" fill="#F9F0E2" stroke="none" stroke-width="1" />
<circle cx="564.52" cy="350.4" r="25.76" fill="#C98B4E" stroke="none" stroke-width="1"/>
<circle cx="645.48" cy="350.4" r="25.76" fill="#C98B4E" stroke="none" stroke-width="1"/>
<circle cx="564.52" cy="350.4" r="13.8" fill="#F1C485" stroke="none" stroke-width="1"/>
<circle cx="645.48" cy="350.4" r="13.8" fill="#F1C485" stroke="none" stroke-width="1"/>
<ellipse cx="605" cy="401" rx="69" ry="64.4" fill="#C98B4E" stroke="none" stroke-width="1"/>
<ellipse cx="605" cy="419.4" rx="34.96" ry="25.76" fill="#F1C485" stroke="none" stroke-width="1"/>
<circle cx="579.24" cy="389.96" r="0.1" fill="#1C2D49" stroke="none" stroke-width="1"/>
<circle cx="630.76" cy="389.96" r="0.1" fill="#1C2D49" stroke="none" stroke-width="1"/>
<rect x="570.04" y="387.2" width="20.240000000000002" height="4.6000000000000005" rx="5" fill="#664125" stroke="none" stroke-width="1" />
<rect x="619.72" y="387.2" width="20.240000000000002" height="4.6000000000000005" rx="5" fill="#664125" stroke="none" stroke-width="1" />
<ellipse cx="605" cy="408.36" rx="12.88" ry="9.200000000000001" fill="#664125" stroke="none" stroke-width="1"/>
<path d="M 590.28 426.76 Q 605 439.64 619.72 426.76" fill="none" stroke="#664125" stroke-width="3.68" stroke-linecap="round"/>
<rect x="479" y="437" width="260" height="98" rx="28" fill="#315D9C" stroke="none" stroke-width="1" />
<text x="519" y="467" fill="#D5A75E" font-size="14" font-family='"Noto Sans SC","Microsoft YaHei",Arial,sans-serif' font-weight="700" text-anchor="middle" letter-spacing="0">★</text>
<text x="572" y="494" fill="#D5A75E" font-size="14" font-family='"Noto Sans SC","Microsoft YaHei",Arial,sans-serif' font-weight="700" text-anchor="middle" letter-spacing="0">★</text>
<text x="623" y="473" fill="#D5A75E" font-size="14" font-family='"Noto Sans SC","Microsoft YaHei",Arial,sans-serif' font-weight="700" text-anchor="middle" letter-spacing="0">★</text>
<text x="672" y="501" fill="#D5A75E" font-size="14" font-family='"Noto Sans SC","Microsoft YaHei",Arial,sans-serif' font-weight="700" text-anchor="middle" letter-spacing="0">★</text>
<text x="709" y="467" fill="#D5A75E" font-size="14" font-family='"Noto Sans SC","Microsoft YaHei",Arial,sans-serif' font-weight="700" text-anchor="middle" letter-spacing="0">★</text>
<rect x="453" y="533" width="304" height="92" rx="28" fill="#FFFFFF" stroke="none" stroke-width="1" />
<path d="M 529 551 L 548 558 L 545.5 580 Q 538.5 589 529 593 Q 519.5 589 512.5 580 L 510 558 Z" fill="#4CAF67" stroke="#2D8D45" stroke-width="1"/>
<path d="M 521 570 L 527.5 577 L 540 563" fill="none" stroke="#FFFFFF" stroke-width="4" stroke-linecap="round" stroke-linejoin="round"/>
<text x="609" y="589" fill="#4CAF67" font-size="23" font-family='"Noto Sans SC","Microsoft YaHei",Arial,sans-serif' font-weight="800" text-anchor="middle" letter-spacing="0">守护已就绪</text>
<rect x="477" y="641" width="256" height="75" rx="37.5" fill="url(#blueBtn)" stroke="none" stroke-width="1" filter="url(#buttonShadow)"/>
<circle cx="515" cy="678.5" r="23.25" fill="#FFFFFF" stroke="none" stroke-width="1"/>
<text x="515" y="687.5" fill="#2F6FEA" font-size="25" font-family='"Noto Sans SC","Microsoft YaHei",Arial,sans-serif' font-weight="700" text-anchor="middle" letter-spacing="0">▶</text>
<text x="627" y="689.5" fill="#FFFFFF" font-size="30" font-family='"Noto Sans SC","Microsoft YaHei",Arial,sans-serif' font-weight="800" text-anchor="middle" letter-spacing="0">开始守护</text>
<rect x="437" y="767" width="336" height="88" rx="28" fill="rgba(255,255,255,0.92)" stroke="#EFE0C9" stroke-width="1" />
<text x="493" y="803" fill="#2F6FEA" font-size="22" font-family='"Noto Sans SC","Microsoft YaHei",Arial,sans-serif' font-weight="800" text-anchor="middle" letter-spacing="0">🛡</text>
<text x="493" y="833" fill="#2F6FEA" font-size="15" font-family='"Noto Sans SC","Microsoft YaHei",Arial,sans-serif' font-weight="700" text-anchor="middle" letter-spacing="0">守护</text>
<text x="605" y="803" fill="#6B7280" font-size="22" font-family='"Noto Sans SC","Microsoft YaHei",Arial,sans-serif' font-weight="800" text-anchor="middle" letter-spacing="0">☀</text>
<text x="605" y="833" fill="#6B7280" font-size="15" font-family='"Noto Sans SC","Microsoft YaHei",Arial,sans-serif' font-weight="700" text-anchor="middle" letter-spacing="0">早安</text>
<text x="717" y="803" fill="#6B7280" font-size="22" font-family='"Noto Sans SC","Microsoft YaHei",Arial,sans-serif' font-weight="800" text-anchor="middle" letter-spacing="0">♙</text>
<text x="717" y="833" fill="#6B7280" font-size="15" font-family='"Noto Sans SC","Microsoft YaHei",Arial,sans-serif' font-weight="700" text-anchor="middle" letter-spacing="0">我的</text>
</g>
<rect x="799" y="77" width="360" height="790" rx="48" fill="#111111" stroke="#111111" stroke-width="1" />
<rect x="804" y="82" width="350" height="780" rx="42" fill="#FFFFFF" stroke="#202020" stroke-width="5" />
<defs><clipPath id="clip-1"><rect x="811" y="89" width="336" height="766" rx="34"/></clipPath></defs>
<g clip-path="url(#clip-1)">
<rect x="811" y="89" width="336" height="766" rx="0" fill="url(#morningBg)" stroke="none" stroke-width="1" />
<text x="827" y="117" fill="#222" font-size="13" font-family='"Noto Sans SC","Microsoft YaHei",Arial,sans-serif' font-weight="600" text-anchor="start" letter-spacing="0">12:30</text>
<path d="M 1087 107 l 16 0 l -8 12 z" fill="#222"/>
<path d="M 1116 106 l 16 21 l -25 0 z" fill="#222"/>
<rect x="1137" y="107" width="10" height="20" rx="3" fill="#222" stroke="none" stroke-width="1" />
<text x="907" y="184" fill="#FF9D22" font-size="36" font-family='"Noto Sans SC","Microsoft YaHei",Arial,sans-serif' font-weight="800" text-anchor="middle" letter-spacing="0">☀</text>
<text x="1001" y="185" fill="#FF9D22" font-size="34" font-family='"Noto Sans SC","Microsoft YaHei",Arial,sans-serif' font-weight="800" text-anchor="middle" letter-spacing="0">早安护理</text>
<rect x="849" y="229" width="260" height="170" rx="32" fill="rgba(255,255,255,0.25)" stroke="none" stroke-width="1" />
<circle cx="945.8" cy="305" r="22.400000000000002" fill="#C98B4E" stroke="none" stroke-width="1"/>
<circle cx="1016.2" cy="305" r="22.400000000000002" fill="#C98B4E" stroke="none" stroke-width="1"/>
<circle cx="945.8" cy="305" r="12" fill="#F1C485" stroke="none" stroke-width="1"/>
<circle cx="1016.2" cy="305" r="12" fill="#F1C485" stroke="none" stroke-width="1"/>
<ellipse cx="981" cy="349" rx="60" ry="56" fill="#C98B4E" stroke="none" stroke-width="1"/>
<ellipse cx="981" cy="365" rx="30.400000000000002" ry="22.400000000000002" fill="#F1C485" stroke="none" stroke-width="1"/>
<circle cx="958.6" cy="339.4" r="5.6000000000000005" fill="#1C2D49" stroke="none" stroke-width="1"/>
<circle cx="1003.4" cy="339.4" r="5.6000000000000005" fill="#1C2D49" stroke="none" stroke-width="1"/>
<ellipse cx="981" cy="355.4" rx="11.200000000000001" ry="8" fill="#664125" stroke="none" stroke-width="1"/>
<path d="M 968.2 371.4 Q 981 382.6 993.8 371.4" fill="none" stroke="#664125" stroke-width="3.2" stroke-linecap="round"/>
<rect x="879" y="331" width="52" height="76" rx="18" fill="#FFFFFF" stroke="#E9DEC9" stroke-width="1" />
<rect x="845" y="439" width="270" height="110" rx="22" fill="#ECF8EF" stroke="#CDEFD5" stroke-width="2" />
<text x="893" y="509" fill="#2F6FEA" font-size="34" font-family='"Noto Sans SC","Microsoft YaHei",Arial,sans-serif' font-weight="700" text-anchor="middle" letter-spacing="0">🥛</text>
<text x="981" y="494" fill="#286B36" font-size="25" font-family='"Noto Sans SC","Microsoft YaHei",Arial,sans-serif' font-weight="800" text-anchor="middle" letter-spacing="0">喝水</text>
<text x="981" y="527" fill="#286B36" font-size="20" font-family='"Noto Sans SC","Microsoft YaHei",Arial,sans-serif' font-weight="700" text-anchor="middle" letter-spacing="0">我喝水了</text>
<circle cx="1081" cy="494" r="31" fill="#4CAF67" stroke="none" stroke-width="1"/>
<text x="1081" y="505" fill="#FFFFFF" font-size="36" font-family='"Noto Sans SC","Microsoft YaHei",Arial,sans-serif' font-weight="800" text-anchor="middle" letter-spacing="0">✓</text>
<rect x="845" y="567" width="270" height="110" rx="22" fill="#FFF0DA" stroke="#FFD39E" stroke-width="2" />
<text x="893" y="637" fill="#FF9D22" font-size="36" font-family='"Noto Sans SC","Microsoft YaHei",Arial,sans-serif' font-weight="700" text-anchor="middle" letter-spacing="0">💊</text>
<text x="989" y="621" fill="#A45B08" font-size="25" font-family='"Noto Sans SC","Microsoft YaHei",Arial,sans-serif' font-weight="800" text-anchor="middle" letter-spacing="0">已吃药</text>
<text x="989" y="653" fill="#FF9D22" font-size="18" font-family='"Noto Sans SC","Microsoft YaHei",Arial,sans-serif' font-weight="700" text-anchor="middle" letter-spacing="0">稍后可再提醒</text>
<circle cx="1081" cy="621" r="31" fill="#FF9D22" stroke="none" stroke-width="1"/>
<text x="1081" y="632" fill="#FFFFFF" font-size="36" font-family='"Noto Sans SC","Microsoft YaHei",Arial,sans-serif' font-weight="800" text-anchor="middle" letter-spacing="0">✓</text>
<rect x="811" y="767" width="336" height="88" rx="28" fill="rgba(255,255,255,0.92)" stroke="#EFE0C9" stroke-width="1" />
<text x="867" y="803" fill="#6B7280" font-size="22" font-family='"Noto Sans SC","Microsoft YaHei",Arial,sans-serif' font-weight="800" text-anchor="middle" letter-spacing="0">🛡</text>
<text x="867" y="833" fill="#6B7280" font-size="15" font-family='"Noto Sans SC","Microsoft YaHei",Arial,sans-serif' font-weight="700" text-anchor="middle" letter-spacing="0">守护</text>
<text x="979" y="803" fill="#FF9D22" font-size="22" font-family='"Noto Sans SC","Microsoft YaHei",Arial,sans-serif' font-weight="800" text-anchor="middle" letter-spacing="0">☀</text>
<text x="979" y="833" fill="#FF9D22" font-size="15" font-family='"Noto Sans SC","Microsoft YaHei",Arial,sans-serif' font-weight="700" text-anchor="middle" letter-spacing="0">早安</text>
<text x="1091" y="803" fill="#6B7280" font-size="22" font-family='"Noto Sans SC","Microsoft YaHei",Arial,sans-serif' font-weight="800" text-anchor="middle" letter-spacing="0">♙</text>
<text x="1091" y="833" fill="#6B7280" font-size="15" font-family='"Noto Sans SC","Microsoft YaHei",Arial,sans-serif' font-weight="700" text-anchor="middle" letter-spacing="0">我的</text>
</g>
<rect x="1173" y="77" width="360" height="790" rx="48" fill="#111111" stroke="#111111" stroke-width="1" />
<rect x="1178" y="82" width="350" height="780" rx="42" fill="#FFFFFF" stroke="#202020" stroke-width="5" />
<defs><clipPath id="clip-2"><rect x="1185" y="89" width="336" height="766" rx="34"/></clipPath></defs>
<g clip-path="url(#clip-2)">
<rect x="1185" y="89" width="336" height="766" rx="0" fill="url(#alarmBg)" stroke="none" stroke-width="1" />
<text x="1201" y="117" fill="#222" font-size="13" font-family='"Noto Sans SC","Microsoft YaHei",Arial,sans-serif' font-weight="600" text-anchor="start" letter-spacing="0">12:30</text>
<path d="M 1461 107 l 16 0 l -8 12 z" fill="#222"/>
<path d="M 1490 106 l 16 21 l -25 0 z" fill="#222"/>
<rect x="1511" y="107" width="10" height="20" rx="3" fill="#222" stroke="none" stroke-width="1" />
<text x="1353" y="183" fill="#F24A3D" font-size="40" font-family='"Noto Sans SC","Microsoft YaHei",Arial,sans-serif' font-weight="900" text-anchor="middle" letter-spacing="0">起床啦！</text>
<circle cx="1353" cy="369" r="110" fill="#FFE5BF" stroke="none" stroke-width="1"/>
<circle cx="1352.6" cy="353.3" r="73.5" fill="#F24A3D" stroke="none" stroke-width="1"/>
<circle cx="1352.6" cy="353.3" r="52.5" fill="#FFF9F0" stroke="none" stroke-width="1"/>
<rect x="1349.45" y="316.55" width="6.300000000000001" height="46.2" rx="3" fill="#1C2D49" stroke="none" stroke-width="1" />
<rect x="1352.6" y="353.3" width="37.800000000000004" height="6.300000000000001" rx="3" fill="#1C2D49" stroke="none" stroke-width="1" />
<rect x="1311.65" y="421.55" width="29.400000000000002" height="12.600000000000001" rx="6" fill="#F24A3D" stroke="none" stroke-width="1" />
<rect x="1364.15" y="421.55" width="29.400000000000002" height="12.600000000000001" rx="6" fill="#F24A3D" stroke="none" stroke-width="1" />
<ellipse cx="1304.3" cy="284" rx="36.75" ry="21" fill="#F24A3D" stroke="none" stroke-width="1"/>
<ellipse cx="1400.9" cy="284" rx="36.75" ry="21" fill="#F24A3D" stroke="none" stroke-width="1"/>
<rect x="1324.25" y="265.1" width="56.7" height="14.700000000000001" rx="7" fill="#F24A3D" stroke="none" stroke-width="1" />
<rect x="1221" y="559" width="264" height="86" rx="43" fill="url(#redBtn)" stroke="none" stroke-width="1" filter="url(#buttonShadow)"/>
<circle cx="1259" cy="602" r="26.66" fill="#FFFFFF" stroke="none" stroke-width="1"/>
<text x="1259" y="611" fill="#F24A3D" font-size="25" font-family='"Noto Sans SC","Microsoft YaHei",Arial,sans-serif' font-weight="700" text-anchor="middle" letter-spacing="0">❤</text>
<text x="1375" y="613" fill="#FFFFFF" font-size="30" font-family='"Noto Sans SC","Microsoft YaHei",Arial,sans-serif' font-weight="800" text-anchor="middle" letter-spacing="0">我醒了</text>
<rect x="1227" y="679" width="252" height="58" rx="28" fill="#FFF6EA" stroke="#E9CDB0" stroke-width="2" filter="url(#buttonShadow)"/>
<text x="1353" y="717" fill="#F24A3D" font-size="26" font-family='"Noto Sans SC","Microsoft YaHei",Arial,sans-serif' font-weight="800" text-anchor="middle" letter-spacing="0">🛡  我没事</text>
</g>
<rect x="1562" y="56" width="285" height="150" rx="24" fill="#F9DAD7" stroke="none" stroke-width="1" />
<rect x="1578" y="76" width="42" height="110" rx="18" fill="rgba(255,255,255,0.45)" stroke="none" stroke-width="1" />
<text x="1600" y="110" fill="#FFFFFF" font-size="22" font-family='"Noto Sans SC","Microsoft YaHei",Arial,sans-serif' font-weight="800" text-anchor="middle" letter-spacing="0">
<tspan x="1600" dy="0">贴</tspan>
<tspan x="1600" dy="23.76">心</tspan>
<tspan x="1600" dy="23.76">小</tspan>
<tspan x="1600" dy="23.76">妹</tspan>
</text>
<ellipse cx="1740" cy="136" rx="58" ry="50" fill="#5F3D2E" stroke="none" stroke-width="1"/>
<ellipse cx="1740" cy="138" rx="43" ry="45" fill="#F3C6A7" stroke="none" stroke-width="1"/>
<circle cx="1724" cy="130" r="4" fill="#1C2D49" stroke="none" stroke-width="1"/>
<circle cx="1756" cy="130" r="4" fill="#1C2D49" stroke="none" stroke-width="1"/>
<path d="M 1724 151 Q 1740 163 1756 151" fill="none" stroke="#1C2D49" stroke-width="3" stroke-linecap="round"/>
<rect x="1697" y="175" width="86" height="40" rx="18" fill="#F8C9D2" stroke="none" stroke-width="1" />
<text x="1808" y="140" fill="#1C2D49" font-size="36" font-family='"Noto Sans SC","Microsoft YaHei",Arial,sans-serif' font-weight="700" text-anchor="middle" letter-spacing="0">👋</text>
<rect x="1562" y="238" width="285" height="150" rx="24" fill="#DFF0D8" stroke="none" stroke-width="1" />
<rect x="1578" y="258" width="42" height="110" rx="18" fill="rgba(255,255,255,0.45)" stroke="none" stroke-width="1" />
<text x="1600" y="292" fill="#FFFFFF" font-size="22" font-family='"Noto Sans SC","Microsoft YaHei",Arial,sans-serif' font-weight="800" text-anchor="middle" letter-spacing="0">
<tspan x="1600" dy="0">懂</tspan>
<tspan x="1600" dy="23.76">事</tspan>
<tspan x="1600" dy="23.76">小</tspan>
<tspan x="1600" dy="23.76">弟</tspan>
</text>
<ellipse cx="1740" cy="318" rx="58" ry="50" fill="#2B2A2A" stroke="none" stroke-width="1"/>
<ellipse cx="1740" cy="320" rx="43" ry="45" fill="#F3C6A7" stroke="none" stroke-width="1"/>
<circle cx="1724" cy="312" r="4" fill="#1C2D49" stroke="none" stroke-width="1"/>
<circle cx="1756" cy="312" r="4" fill="#1C2D49" stroke="none" stroke-width="1"/>
<path d="M 1724 333 Q 1740 345 1756 333" fill="none" stroke="#1C2D49" stroke-width="3" stroke-linecap="round"/>
<rect x="1697" y="357" width="86" height="40" rx="18" fill="#74B78A" stroke="none" stroke-width="1" />
<text x="1808" y="322" fill="#1C2D49" font-size="36" font-family='"Noto Sans SC","Microsoft YaHei",Arial,sans-serif' font-weight="700" text-anchor="middle" letter-spacing="0">👍</text>
<rect x="1562" y="420" width="285" height="150" rx="24" fill="#D7EAFB" stroke="none" stroke-width="1" />
<rect x="1578" y="440" width="42" height="110" rx="18" fill="rgba(255,255,255,0.45)" stroke="none" stroke-width="1" />
<text x="1600" y="474" fill="#FFFFFF" font-size="22" font-family='"Noto Sans SC","Microsoft YaHei",Arial,sans-serif' font-weight="800" text-anchor="middle" letter-spacing="0">
<tspan x="1600" dy="0">阳</tspan>
<tspan x="1600" dy="23.76">光</tspan>
<tspan x="1600" dy="23.76">小</tspan>
<tspan x="1600" dy="23.76">哥</tspan>
</text>
<ellipse cx="1740" cy="500" rx="58" ry="50" fill="#2B2A2A" stroke="none" stroke-width="1"/>
<ellipse cx="1740" cy="502" rx="43" ry="45" fill="#F3C6A7" stroke="none" stroke-width="1"/>
<circle cx="1724" cy="494" r="4" fill="#1C2D49" stroke="none" stroke-width="1"/>
<circle cx="1756" cy="494" r="4" fill="#1C2D49" stroke="none" stroke-width="1"/>
<path d="M 1724 515 Q 1740 527 1756 515" fill="none" stroke="#1C2D49" stroke-width="3" stroke-linecap="round"/>
<rect x="1697" y="539" width="86" height="40" rx="18" fill="#74B78A" stroke="none" stroke-width="1" />
<text x="1808" y="504" fill="#1C2D49" font-size="36" font-family='"Noto Sans SC","Microsoft YaHei",Arial,sans-serif' font-weight="700" text-anchor="middle" letter-spacing="0">👍</text>
<rect x="1562" y="602" width="285" height="150" rx="24" fill="#E7DCF8" stroke="none" stroke-width="1" />
<rect x="1578" y="622" width="42" height="110" rx="18" fill="rgba(255,255,255,0.45)" stroke="none" stroke-width="1" />
<text x="1600" y="656" fill="#FFFFFF" font-size="22" font-family='"Noto Sans SC","Microsoft YaHei",Arial,sans-serif' font-weight="800" text-anchor="middle" letter-spacing="0">
<tspan x="1600" dy="0">温</tspan>
<tspan x="1600" dy="23.76">柔</tspan>
<tspan x="1600" dy="23.76">姐</tspan>
<tspan x="1600" dy="23.76">姐</tspan>
</text>
<ellipse cx="1740" cy="682" rx="58" ry="50" fill="#5F3D2E" stroke="none" stroke-width="1"/>
<ellipse cx="1740" cy="684" rx="43" ry="45" fill="#F3C6A7" stroke="none" stroke-width="1"/>
<circle cx="1724" cy="676" r="4" fill="#1C2D49" stroke="none" stroke-width="1"/>
<circle cx="1756" cy="676" r="4" fill="#1C2D49" stroke="none" stroke-width="1"/>
<path d="M 1724 697 Q 1740 709 1756 697" fill="none" stroke="#1C2D49" stroke-width="3" stroke-linecap="round"/>
<rect x="1697" y="721" width="86" height="40" rx="18" fill="#F8C9D2" stroke="none" stroke-width="1" />
<text x="1808" y="686" fill="#1C2D49" font-size="36" font-family='"Noto Sans SC","Microsoft YaHei",Arial,sans-serif' font-weight="700" text-anchor="middle" letter-spacing="0">👋</text>
<rect x="48" y="916" width="1492" height="72" rx="26" fill="#FFF2DD" stroke="none" stroke-width="1" />
<rect x="82" y="932" width="240" height="48" rx="24" fill="url(#blueBtn)" stroke="none" stroke-width="1" filter="url(#buttonShadow)"/>
<circle cx="120" cy="956" r="14.879999999999999" fill="#FFFFFF" stroke="none" stroke-width="1"/>
<text x="120" y="965" fill="#2F6FEA" font-size="25" font-family='"Noto Sans SC","Microsoft YaHei",Arial,sans-serif' font-weight="700" text-anchor="middle" letter-spacing="0">▶</text>
<text x="224" y="967" fill="#FFFFFF" font-size="30" font-family='"Noto Sans SC","Microsoft YaHei",Arial,sans-serif' font-weight="800" text-anchor="middle" letter-spacing="0">开始守护</text>
<rect x="344" y="932" width="240" height="48" rx="24" fill="#ECF8EF" stroke="#C8EAD0" stroke-width="2" filter="url(#buttonShadow)"/>
<text x="464" y="964" fill="#2B7B3E" font-size="24" font-family='"Noto Sans SC","Microsoft YaHei",Arial,sans-serif' font-weight="800" text-anchor="middle" letter-spacing="0">✓ 我没事</text>
<rect x="616" y="932" width="220" height="48" rx="24" fill="url(#orangeBtn)" stroke="none" stroke-width="1" filter="url(#buttonShadow)"/>
<circle cx="654" cy="956" r="14.879999999999999" fill="#FFFFFF" stroke="none" stroke-width="1"/>
<text x="654" y="965" fill="#2F6FEA" font-size="25" font-family='"Noto Sans SC","Microsoft YaHei",Arial,sans-serif' font-weight="700" text-anchor="middle" letter-spacing="0">☀</text>
<text x="748" y="967" fill="#FFFFFF" font-size="30" font-family='"Noto Sans SC","Microsoft YaHei",Arial,sans-serif' font-weight="800" text-anchor="middle" letter-spacing="0">早安护理</text>
<rect x="862" y="932" width="210" height="48" rx="24" fill="url(#redBtn)" stroke="none" stroke-width="1" filter="url(#buttonShadow)"/>
<circle cx="900" cy="956" r="14.879999999999999" fill="#FFFFFF" stroke="none" stroke-width="1"/>
<text x="900" y="965" fill="#F24A3D" font-size="25" font-family='"Noto Sans SC","Microsoft YaHei",Arial,sans-serif' font-weight="700" text-anchor="middle" letter-spacing="0">❤</text>
<text x="989" y="967" fill="#FFFFFF" font-size="30" font-family='"Noto Sans SC","Microsoft YaHei",Arial,sans-serif' font-weight="800" text-anchor="middle" letter-spacing="0">我醒了</text>
<rect x="1118" y="928" width="52" height="52" rx="15" fill="#FFFFFF" stroke="#EEE0CA" stroke-width="1" filter="url(#softShadow)"/>
<text x="1144" y="963" fill="#1C2D49" font-size="25" font-family='"Noto Sans SC","Microsoft YaHei",Arial,sans-serif' font-weight="700" text-anchor="middle" letter-spacing="0">🥛</text>
<rect x="1184" y="928" width="52" height="52" rx="15" fill="#FFFFFF" stroke="#EEE0CA" stroke-width="1" filter="url(#softShadow)"/>
<text x="1210" y="963" fill="#1C2D49" font-size="25" font-family='"Noto Sans SC","Microsoft YaHei",Arial,sans-serif' font-weight="700" text-anchor="middle" letter-spacing="0">💊</text>
<rect x="1250" y="928" width="52" height="52" rx="15" fill="#FFFFFF" stroke="#EEE0CA" stroke-width="1" filter="url(#softShadow)"/>
<text x="1276" y="963" fill="#1C2D49" font-size="25" font-family='"Noto Sans SC","Microsoft YaHei",Arial,sans-serif' font-weight="700" text-anchor="middle" letter-spacing="0">🛡</text>
<rect x="1316" y="928" width="52" height="52" rx="15" fill="#FFFFFF" stroke="#EEE0CA" stroke-width="1" filter="url(#softShadow)"/>
<text x="1342" y="963" fill="#1C2D49" font-size="25" font-family='"Noto Sans SC","Microsoft YaHei",Arial,sans-serif' font-weight="700" text-anchor="middle" letter-spacing="0">❤</text>
<rect x="1382" y="928" width="52" height="52" rx="15" fill="#FFFFFF" stroke="#EEE0CA" stroke-width="1" filter="url(#softShadow)"/>
<text x="1408" y="963" fill="#1C2D49" font-size="25" font-family='"Noto Sans SC","Microsoft YaHei",Arial,sans-serif' font-weight="700" text-anchor="middle" letter-spacing="0">☀</text>
</svg>
